<?xml version="1.0" encoding="UTF-8" standalone="no"?>
<!-- Created with Inkscape (http://www.inkscape.org/) -->

<svg
   xmlns:dc="http://purl.org/dc/elements/1.1/"
   xmlns:cc="http://creativecommons.org/ns#"
   xmlns:rdf="http://www.w3.org/1999/02/22-rdf-syntax-ns#"
   xmlns:svg="http://www.w3.org/2000/svg"
   xmlns="http://www.w3.org/2000/svg"
   xmlns:sodipodi="http://sodipodi.sourceforge.net/DTD/sodipodi-0.dtd"
   xmlns:inkscape="http://www.inkscape.org/namespaces/inkscape"
   width="20mm"
   height="20mm"
   viewBox="0 0 20 20"
   version="1.1"
   id="svg8"
   inkscape:version="0.92.5 (2060ec1f9f, 2020-04-08)"
   sodipodi:docname="3_white.svg">
  <defs
     id="defs2" />
  <sodipodi:namedview
     id="base"
     pagecolor="#ffffff"
     bordercolor="#666666"
     borderopacity="1.0"
     inkscape:pageopacity="0.0"
     inkscape:pageshadow="2"
     inkscape:zoom="1.9999999"
     inkscape:cx="64.350635"
     inkscape:cy="-14.35385"
     inkscape:document-units="mm"
     inkscape:current-layer="layer1"
     showgrid="false"
     inkscape:snap-page="true"
     showguides="true"
     inkscape:guide-bbox="true"
     inkscape:window-width="1920"
     inkscape:window-height="1009"
     inkscape:window-x="0"
     inkscape:window-y="0"
     inkscape:window-maximized="1">
    <sodipodi:guide
       position="1.6370258,10"
       orientation="0,1"
       id="guide819"
       inkscape:locked="false" />
    <sodipodi:guide
       position="4.7473749,2.7815502e-07"
       orientation="0,1"
       id="guide821"
       inkscape:locked="false" />
    <sodipodi:guide
       position="9.9999997,5.6594321"
       orientation="1,0"
       id="guide823"
       inkscape:locked="false" />
    <sodipodi:guide
       position="0,4.9344635"
       orientation="1,0"
       id="guide825"
       inkscape:locked="false" />
    <sodipodi:guide
       position="5.0046218,7.6472492"
       orientation="1,0"
       id="guide878"
       inkscape:locked="false" />
    <sodipodi:guide
       position="5.636046,5.0046218"
       orientation="0,1"
       id="guide880"
       inkscape:locked="false" />
  </sodipodi:namedview>
  <metadata
     id="metadata5">
    <rdf:RDF>
      <cc:Work
         rdf:about="">
        <dc:format>image/svg+xml</dc:format>
        <dc:type
           rdf:resource="http://purl.org/dc/dcmitype/StillImage" />
        <dc:title />
      </cc:Work>
    </rdf:RDF>
  </metadata>
  <g
     inkscape:label="Layer 1"
     inkscape:groupmode="layer"
     id="layer1"
     transform="translate(0,-277)">
    <g
       id="g2284"
       transform="matrix(2,0,0,2,-0.24525023,-297.22523)">
      <rect
         transform="rotate(-45)"
         ry="0"
         rx="0"
         y="207.03101"
         x="-205.87976"
         height="5.8932929"
         width="5.8932929"
         id="rect922"
         style="fill:none;fill-opacity:1;stroke:#000000;stroke-width:0.26458332;stroke-opacity:1" />
      <path
         inkscape:connector-curvature="0"
         id="path955"
         d="m 4.9812424,296.13919 v -8.33438"
         style="fill:none;stroke:#000000;stroke-width:0.26458332px;stroke-linecap:butt;stroke-linejoin:miter;stroke-opacity:1" />
      <path
         inkscape:connector-curvature="0"
         id="path957"
         d="M 0.81405322,291.972 H 9.1484311"
         style="fill:none;stroke:#000000;stroke-width:0.26458332px;stroke-linecap:butt;stroke-linejoin:miter;stroke-opacity:1" />
      <path
         inkscape:connector-curvature="0"
         id="path959"
         d="M 3.2058073,291.59006 4.5700651,290.2258"
         style="fill:none;stroke:#000000;stroke-width:0.26458332px;stroke-linecap:butt;stroke-linejoin:miter;stroke-opacity:1" />
      <path
         inkscape:connector-curvature="0"
         id="path959-3"
         d="m 5.421639,293.74158 1.3642578,-1.36426"
         style="fill:none;stroke:#000000;stroke-width:0.26458332px;stroke-linecap:butt;stroke-linejoin:miter;stroke-opacity:1" />
      <path
         inkscape:connector-curvature="0"
         id="path959-3-5"
         d="M 6.7975927,291.51989 5.4333281,290.15563"
         style="fill:none;stroke:#000000;stroke-width:0.26458332px;stroke-linecap:butt;stroke-linejoin:miter;stroke-opacity:1" />
      <path
         style="fill:none;stroke:#000000;stroke-width:0.26458332px;stroke-linecap:butt;stroke-linejoin:miter;stroke-opacity:1"
         d="M 4.5990746,293.7535 3.23481,292.38924"
         id="path991"
         inkscape:connector-curvature="0" />
      <path
         transform="matrix(0.26458333,0,0,0.26458333,0,287)"
         inkscape:connector-curvature="0"
         id="path2265"
         d="m 11.317763,11.302029 c 3.828263,-3.8283199 6.965473,-6.960582 6.971579,-6.960582 0.0061,0 0.0111,3.1322621 0.0111,6.960582 v 6.960583 H 11.328865 4.3572863 Z m 5.965804,0.884105 -0.375698,-0.375697 -2.584571,2.584854 -2.58457,2.584854 0.374578,0.376534 0.374578,0.376534 2.58569,-2.585691 2.585691,-2.58569 z"
         style="fill:#ffffff;fill-opacity:1;stroke:#000000;stroke-width:0.01670331;stroke-miterlimit:4;stroke-dasharray:none;stroke-opacity:1" />
      <path
         transform="matrix(0.26458333,0,0,0.26458333,0,287)"
         inkscape:connector-curvature="0"
         id="path2267"
         d="M 19.361103,11.291033 V 4.3194552 l 6.960582,6.9604768 c 3.828321,3.828263 6.960583,6.965473 6.960583,6.971579 0,0.0061 -3.132262,0.0111 -6.960583,0.0111 h -6.960582 z m 4.122057,2.851421 -2.596296,-2.596576 -0.365552,0.363653 -0.365552,0.363653 2.596296,2.596576 2.596296,2.596576 0.365552,-0.363653 0.365552,-0.363653 z"
         style="fill:#ffffff;fill-opacity:1;stroke:#000000;stroke-width:0.01670331;stroke-miterlimit:4;stroke-dasharray:none;stroke-opacity:1" />
      <path
         transform="matrix(0.26458333,0,0,0.26458333,0,287)"
         inkscape:connector-curvature="0"
         id="path2269"
         d="m 19.361103,26.29485 v -6.971578 h 6.960582 c 3.828321,0 6.960583,0.005 6.960583,0.0111 0,0.0061 -3.132262,3.143316 -6.960583,6.971578 l -6.960582,6.960478 z m 6.308887,-5.988146 -0.363653,-0.365552 -2.596576,2.596296 -2.596576,2.596296 0.363653,0.365552 0.363653,0.365552 2.596576,-2.596296 2.596576,-2.596296 z"
         style="fill:#ffffff;fill-opacity:1;stroke:#000000;stroke-width:0.01670331;stroke-miterlimit:4;stroke-dasharray:none;stroke-opacity:1" />
      <path
         transform="matrix(0.26458333,0,0,0.26458333,0,287)"
         inkscape:connector-curvature="0"
         id="path2271"
         d="M 11.317763,26.283854 4.3572863,19.323272 h 6.9715787 6.971578 v 6.960582 c 0,3.828321 -0.005,6.960583 -0.0111,6.960583 -0.0061,0 -3.143316,-3.132262 -6.971579,-6.960583 z m 3.856892,-3.700313 -2.596296,-2.596576 -0.365552,0.363653 -0.365552,0.363653 2.596296,2.596576 2.596296,2.596576 0.365553,-0.363653 0.365551,-0.363653 z"
         style="fill:#ffffff;fill-opacity:1;stroke:#000000;stroke-width:0.01670331;stroke-miterlimit:4;stroke-dasharray:none;stroke-opacity:1" />
    </g>
    <path
       inkscape:connector-curvature="0"
       style="fill:#000000;fill-opacity:1;stroke:none;stroke-width:0.52916664;stroke-opacity:1"
       d="m 0,277 v 2.62723 a 2.6387462,2.6387462 0 0 0 0.0016,0 A 2.6387462,2.6387462 0 0 0 2.640199,277 Z"
       id="path815" />
    <path
       inkscape:connector-curvature="0"
       style="fill:#000000;fill-opacity:1;stroke:none;stroke-width:0.52916664;stroke-opacity:1"
       d="m 0,294.35346 v 2.64635 h 2.629813 a 2.6387462,2.6387462 0 0 0 5.16e-4,-0.008 A 2.6387462,2.6387462 0 0 0 0,294.35346 Z"
       id="path815-3" />
    <path
       inkscape:connector-curvature="0"
       style="fill:#000000;fill-opacity:1;stroke:none;stroke-width:0.52916664;stroke-opacity:1"
       d="m 19.999813,294.29662 a 2.6387462,2.6387462 0 0 0 -2.596224,2.63705 2.6387462,2.6387462 0 0 0 0.0031,0.0661 h 2.593123 z"
       id="path815-3-6" />
    <path
       inkscape:connector-curvature="0"
       style="fill:#000000;fill-opacity:1;stroke:none;stroke-width:0.52916664;stroke-opacity:1"
       d="m 17.355013,277 a 2.6387462,2.6387462 0 0 0 -0.001,0.0238 2.6387462,2.6387462 0 0 0 2.638599,2.63912 2.6387462,2.6387462 0 0 0 0.0072,-5.3e-4 V 277 Z"
       id="path815-3-7" />
  </g>
</svg>
