<?xml version="1.0" encoding="UTF-8" standalone="no"?>
<!-- Created with Inkscape (http://www.inkscape.org/) -->

<svg
   xmlns:dc="http://purl.org/dc/elements/1.1/"
   xmlns:cc="http://creativecommons.org/ns#"
   xmlns:rdf="http://www.w3.org/1999/02/22-rdf-syntax-ns#"
   xmlns:svg="http://www.w3.org/2000/svg"
   xmlns="http://www.w3.org/2000/svg"
   xmlns:sodipodi="http://sodipodi.sourceforge.net/DTD/sodipodi-0.dtd"
   xmlns:inkscape="http://www.inkscape.org/namespaces/inkscape"
   width="10mm"
   height="10mm"
   viewBox="0 0 10 10"
   version="1.1"
   id="svg8"
   inkscape:version="0.92.5 (2060ec1f9f, 2020-04-08)"
   sodipodi:docname="4_white.svg">
  <defs
     id="defs2" />
  <sodipodi:namedview
     id="base"
     pagecolor="#ffffff"
     bordercolor="#666666"
     borderopacity="1.0"
     inkscape:pageopacity="0.0"
     inkscape:pageshadow="2"
     inkscape:zoom="22.627417"
     inkscape:cx="-2.8896964"
     inkscape:cy="17.020783"
     inkscape:document-units="mm"
     inkscape:current-layer="layer1"
     showgrid="false"
     inkscape:snap-page="true"
     showguides="true"
     inkscape:guide-bbox="true"
     inkscape:window-width="1920"
     inkscape:window-height="1009"
     inkscape:window-x="0"
     inkscape:window-y="0"
     inkscape:window-maximized="1">
    <sodipodi:guide
       position="1.6370258,10"
       orientation="0,1"
       id="guide819"
       inkscape:locked="false" />
    <sodipodi:guide
       position="4.7473749,2.7815502e-07"
       orientation="0,1"
       id="guide821"
       inkscape:locked="false" />
    <sodipodi:guide
       position="9.9999997,5.6594321"
       orientation="1,0"
       id="guide823"
       inkscape:locked="false" />
    <sodipodi:guide
       position="0,4.9344635"
       orientation="1,0"
       id="guide825"
       inkscape:locked="false" />
    <sodipodi:guide
       position="5.0046218,7.6472492"
       orientation="1,0"
       id="guide878"
       inkscape:locked="false" />
    <sodipodi:guide
       position="5.636046,5.0046218"
       orientation="0,1"
       id="guide880"
       inkscape:locked="false" />
  </sodipodi:namedview>
  <metadata
     id="metadata5">
    <rdf:RDF>
      <cc:Work
         rdf:about="">
        <dc:format>image/svg+xml</dc:format>
        <dc:type
           rdf:resource="http://purl.org/dc/dcmitype/StillImage" />
        <dc:title />
      </cc:Work>
    </rdf:RDF>
  </metadata>
  <g
     inkscape:label="Layer 1"
     inkscape:groupmode="layer"
     id="layer1"
     transform="translate(0,-287)">
    <circle
       style="fill:#000000;fill-opacity:1;stroke:#000000;stroke-width:0.26458332;stroke-opacity:1"
       id="path815"
       cx="0.00083967519"
       cy="286.9942"
       r="1.3193731" />
    <circle
       style="fill:#000000;fill-opacity:1;stroke:#000000;stroke-width:0.26458332;stroke-opacity:1"
       id="path815-3"
       cx="-0.0041341428"
       cy="296.99588"
       r="1.3193731" />
    <circle
       style="fill:#000000;fill-opacity:1;stroke:#000000;stroke-width:0.26458332;stroke-opacity:1"
       id="path815-3-6"
       cx="10.021093"
       cy="296.96692"
       r="1.3193731" />
    <circle
       style="fill:#000000;fill-opacity:1;stroke:#000000;stroke-width:0.26458332;stroke-opacity:1"
       id="path815-3-7"
       cx="9.9962893"
       cy="287.01199"
       r="1.3193731" />
    <g
       id="g3019">
      <g
         transform="rotate(136.13728,4.9816609,291.9721)"
         id="g1021">
        <path
           transform="rotate(-45)"
           style="fill:none;fill-opacity:1;stroke:#000000;stroke-width:0.26458332;stroke-opacity:1"
           d="m -205.87976,207.03101 c 1.9613,1.42115 3.89065,1.42115 5.89329,0 -1.3426,1.98195 -1.3426,3.9113 0,5.89329 -1.95716,-1.38396 -3.88652,-1.38396 -5.89329,0 1.4167,-1.95717 1.41087,-3.86905 0,-5.89329 z"
           id="rect922"
           inkscape:connector-curvature="0"
           sodipodi:nodetypes="ccccc" />
        <path
           style="fill:none;stroke:#000000;stroke-width:0.26458332px;stroke-linecap:butt;stroke-linejoin:miter;stroke-opacity:1"
           d="m 4.9812424,296.13919 v -8.33438"
           id="path955"
           inkscape:connector-curvature="0" />
        <path
           style="fill:none;stroke:#000000;stroke-width:0.26458332px;stroke-linecap:butt;stroke-linejoin:miter;stroke-opacity:1"
           d="M 0.81405322,291.972 H 9.1484311"
           id="path957"
           inkscape:connector-curvature="0" />
        <path
           style="fill:none;stroke:#000000;stroke-width:0.26458332px;stroke-linecap:butt;stroke-linejoin:miter;stroke-opacity:1"
           d="M 6.2971817,290.61727 5.3772673,291.5255"
           id="path959"
           inkscape:connector-curvature="0"
           sodipodi:nodetypes="cc" />
        <path
           style="fill:none;stroke:#000000;stroke-width:0.26458332px;stroke-linecap:butt;stroke-linejoin:miter;stroke-opacity:1"
           d="M 4.5900123,292.37707 3.6584899,293.3394"
           id="path959-3"
           inkscape:connector-curvature="0"
           sodipodi:nodetypes="cc" />
        <path
           style="fill:none;stroke:#000000;stroke-width:0.26458332px;stroke-linecap:butt;stroke-linejoin:miter;stroke-opacity:1"
           d="m 5.4474323,292.38877 0.9199344,0.95499"
           id="path959-3-5"
           inkscape:connector-curvature="0"
           sodipodi:nodetypes="cc" />
        <path
           inkscape:connector-curvature="0"
           id="path991"
           d="m 3.6113957,290.62289 0.9667066,0.93161"
           style="fill:none;stroke:#000000;stroke-width:0.26458332px;stroke-linecap:butt;stroke-linejoin:miter;stroke-opacity:1"
           sodipodi:nodetypes="cc" />
      </g>
      <path
         transform="matrix(0.26458333,0,0,0.26458333,0,287)"
         inkscape:connector-curvature="0"
         id="path2996"
         d="m 15.094812,14.153256 c -2.064979,-2.145768 -3.750619,-3.906493 -3.745865,-3.912723 0.0048,-0.0062 0.235565,0.09531 0.512914,0.225636 1.895252,0.890601 3.82401,1.444974 5.630796,1.618428 0.291681,0.028 0.594964,0.06054 0.673961,0.07231 l 0.143631,0.0214 v 2.2519 2.2519 h 0.53033 0.53033 v -2.253903 -2.253903 l 0.298311,-1.5e-4 c 0.164071,-8.4e-5 0.527015,-0.02055 0.806543,-0.04549 2.104351,-0.187722 4.007609,-0.706371 6.265088,-1.707274 0.0732,-0.03246 -0.629592,0.651698 -3.436661,3.345509 -1.276106,1.22462 -2.800495,2.690344 -3.387532,3.257165 l -1.067337,1.030583 z"
         style="fill:#ffffff;fill-opacity:1;stroke:#000000;stroke-width:0.01670331;stroke-miterlimit:4;stroke-dasharray:none;stroke-opacity:1" />
      <path
         transform="matrix(0.26458333,0,0,0.26458333,0,287)"
         inkscape:connector-curvature="0"
         id="path2998"
         d="m 23.368303,22.759013 c -2.064879,-2.149386 -3.754326,-3.928016 -3.754326,-3.952512 0,-0.05073 7.719054,-7.479444 7.744906,-7.453592 0.0093,0.0093 -0.05158,0.153122 -0.135211,0.319684 -0.41734,0.831194 -0.864902,1.991279 -1.155743,2.995699 -0.313933,1.084167 -0.468153,1.935962 -0.622658,3.439082 l -0.02612,0.254117 h -2.206529 -2.206529 v 0.508233 0.508233 h 2.202903 2.202903 l 0.0296,0.620014 c 0.09455,1.980593 0.643021,4.237784 1.502392,6.182947 0.112042,0.253604 0.198094,0.466716 0.191227,0.473583 -0.0069,0.0069 -1.701932,-1.746103 -3.766812,-3.895488 z"
         style="fill:#ffffff;fill-opacity:1;stroke:#000000;stroke-width:0.01670331;stroke-miterlimit:4;stroke-dasharray:none;stroke-opacity:1" />
      <path
         transform="matrix(0.26458333,0,0,0.26458333,0,287)"
         inkscape:connector-curvature="0"
         id="path3000"
         d="m 26.935653,26.479148 c -0.05276,-0.05616 -0.09593,-0.11708 -0.09593,-0.135374 0,-0.0183 -0.790523,-0.852324 -1.756718,-1.853398 -1.700201,-1.761577 -4.025495,-4.189454 -4.951699,-5.170149 -0.248071,-0.262666 -0.451039,-0.495173 -0.451039,-0.516683 0,-0.06673 7.515869,-7.304022 7.549866,-7.270025 0.0092,0.0092 -0.09238,0.251566 -0.22568,0.538654 -0.803078,1.729637 -1.334554,3.662816 -1.534681,5.582211 -0.02661,0.255221 -0.05778,0.508785 -0.06926,0.563476 l -0.02088,0.09944 h -2.208867 -2.208867 v 0.552427 0.552427 h 2.209709 c 2.074874,0 2.209733,0.0047 2.210097,0.07734 0.0013,0.264351 0.09879,1.394697 0.157035,1.821177 0.204108,1.494575 0.679332,3.219407 1.27736,4.63619 0.13711,0.324825 0.241683,0.598199 0.232386,0.607496 -0.0093,0.0093 -0.06007,-0.02904 -0.112833,-0.08521 z"
         style="fill:#ffffff;fill-opacity:1;stroke:#000000;stroke-width:0.01670331;stroke-miterlimit:4;stroke-dasharray:none;stroke-opacity:1" />
      <path
         transform="matrix(0.26458333,0,0,0.26458333,0,287)"
         inkscape:connector-curvature="0"
         id="path3002"
         d="m 26.198909,27.456535 c -1.669305,-0.864266 -4.516561,-1.665791 -6.34966,-1.787477 -0.235202,-0.01561 -0.450067,-0.04225 -0.477476,-0.05919 -0.03694,-0.02283 -0.03437,-0.613152 0.0099,-2.280618 0.03287,-1.2374 0.05223,-2.259762 0.04302,-2.271916 -0.0092,-0.01215 -0.24094,-0.02871 -0.514956,-0.03679 l -0.498212,-0.01469 -0.02815,0.765993 c -0.01548,0.421297 -0.03888,1.312897 -0.05199,1.981334 -0.01311,0.668437 -0.03459,1.356496 -0.04774,1.52902 l -0.0239,0.313681 -0.670821,0.02691 c -2.045731,0.08205 -4.309327,0.611289 -6.375118,1.490534 -0.234071,0.09963 -0.431346,0.174873 -0.438389,0.167217 -0.0145,-0.01576 7.970471,-7.696431 8.022745,-7.717005 0.02829,-0.01113 7.499831,7.728767 7.682343,7.95827 0.08509,0.106992 0.02354,0.09273 -0.281625,-0.06527 z"
         style="fill:#ffffff;fill-opacity:1;stroke:#000000;stroke-width:0.01670331;stroke-miterlimit:4;stroke-dasharray:none;stroke-opacity:1" />
      <path
         transform="matrix(0.26458333,0,0,0.26458333,0,287)"
         inkscape:connector-curvature="0"
         id="path3004"
         d="m 10.188468,26.316442 c 0.01493,-0.03646 0.15605,-0.346004 0.31359,-0.687876 0.854665,-1.85468 1.401261,-3.87551 1.576504,-5.828523 0.02606,-0.290449 0.05643,-0.537133 0.06748,-0.548187 0.01105,-0.01105 0.974995,0.01606 2.142092,0.06025 1.167097,0.04419 2.136589,0.06575 2.154428,0.04792 0.01784,-0.01784 0.0398,-0.247747 0.04881,-0.510907 l 0.01638,-0.478474 -0.457722,-0.02681 c -0.251748,-0.01474 -1.014569,-0.04638 -1.69516,-0.07029 -0.68059,-0.02392 -1.45815,-0.05546 -1.727911,-0.0701 l -0.490475,-0.02661 -0.02746,-0.625826 C 12.025334,15.643754 11.524361,13.501553 10.6985,11.51949 10.553501,11.171493 10.443357,10.878277 10.453734,10.8679 c 0.0164,-0.0164 6.704534,6.915785 7.377728,7.646936 l 0.250415,0.271974 -3.514072,3.378118 c -4.081427,3.923522 -4.415773,4.240474 -4.379335,4.151516 z"
         style="fill:#ffffff;fill-opacity:1;stroke:#000000;stroke-width:0.01670331;stroke-miterlimit:4;stroke-dasharray:none;stroke-opacity:1" />
    </g>
  </g>
</svg>
